<?xml version="1.0" standalone="no"?>
<!DOCTYPE svg PUBLIC "-//W3C//DTD SVG 20010904//EN"
 "http://www.w3.org/TR/2001/REC-SVG-20010904/DTD/svg10.dtd">
<svg version="1.0" xmlns="http://www.w3.org/2000/svg"
 width="260.000000pt" height="260.000000pt" viewBox="0 0 260.000000 260.000000"
 preserveAspectRatio="xMidYMid meet">
<metadata>
Created by potrace 1.11, written by Peter Selinger 2001-2013
</metadata>
<g transform="translate(0.000000,260.000000) scale(0.100000,-0.100000)"
fill="#000000" stroke="none">
<path d="M0 1300 l0 -1300 1300 0 1300 0 0 1300 0 1300 -1300 0 -1300 0 0
-1300z m2165 1046 c65 -27 62 -11 106 -637 22 -316 50 -722 63 -903 12 -180
21 -339 18 -352 -2 -14 -16 -37 -31 -53 -33 -35 52 -27 -1010 -101 -920 -64
-888 -64 -926 -7 -13 21 -27 184 -80 933 -70 1007 -70 958 -2 990 29 14 603
59 1810 143 10 0 33 -5 52 -13z"/>
<path d="M1021 1833 c-102 -7 -185 -14 -186 -16 -4 -4 72 -1057 76 -1061 6 -6
512 32 592 44 90 14 126 30 180 79 109 101 126 286 36 394 -31 38 -113 87
-145 87 -11 0 -2 14 28 43 25 23 53 57 63 76 23 46 30 131 15 186 -17 60 -81
132 -145 161 -45 22 -63 24 -190 23 -77 -1 -223 -8 -324 -16z m417 -174 c27
-17 52 -67 52 -106 0 -40 -32 -87 -71 -105 -30 -14 -231 -38 -318 -38 l-29 0
-7 121 c-4 66 -5 122 -3 125 9 8 220 22 288 20 36 -2 75 -9 88 -17z m35 -423
c54 -23 80 -59 84 -118 3 -40 -1 -61 -15 -84 -36 -57 -70 -64 -385 -88 -58 -4
-56 -9 -59 164 l-3 125 80 6 c159 11 265 9 298 -5z"/>
</g>
</svg>
